<svg id="e7DNjWzpnQJ1" xmlns="http://www.w3.org/2000/svg" xmlns:xlink="http://www.w3.org/1999/xlink" viewBox="0 0 720 128" shape-rendering="geometricPrecision" text-rendering="geometricPrecision"><style><![CDATA[#e7DNjWzpnQJ17 {animation: e7DNjWzpnQJ17_c_o 3000ms linear infinite normal forwards}@keyframes e7DNjWzpnQJ17_c_o { 0% {opacity: 1;animation-timing-function: cubic-bezier(1,0,1,1)} 16.666667% {opacity: 0;animation-timing-function: cubic-bezier(1,-0.01,1,0.035)} 33.333333% {opacity: 1;animation-timing-function: cubic-bezier(1,0,1,1)} 50% {opacity: 0;animation-timing-function: cubic-bezier(1,-0.01,1,0.035)} 66.666667% {opacity: 1;animation-timing-function: cubic-bezier(1,0,1,1)} 83.333333% {opacity: 0;animation-timing-function: cubic-bezier(1,-0.01,1,0.035)} 100% {opacity: 1}}]]></style><path d="M702,188.947667h-684c-9.94,0-18-8.062873-18-18.006416L0,45.116416C0,35.172873,8.06,27.11,18,27.11h684c9.94,0,18,8.062873,18,18.006416v125.824834c0,9.943543-8.06,18.006416-18,18.006416Z" transform="matrix(1 0 0 0.790916 0-21.441733)"/><g transform="translate(-1.722488-47.28576)"><path d="M40.76,133.65v-35.85h6.5v6.73C49.83,99.51,53.58,97,58.48,97c.66,0,1.35.06,2.08.17v6.1c-1.12-.37-2.11-.56-2.97-.56-4.12,0-7.56,2.44-10.33,7.32v23.61h-6.5Z" fill="#fff"/><path d="M87.44,129.09c-3.9,3.59-7.65,5.38-11.26,5.38-2.97,0-5.44-.93-7.39-2.79-1.96-1.86-2.94-4.21-2.94-7.05c0-3.92,1.64-6.93,4.93-9.03s8.02-3.15,14.18-3.15h1.52v-4.32c0-4.16-2.17-6.24-6.5-6.24-3.37,0-7.04,1.06-11.02,3.17v-5.38c4.38-1.78,8.5-2.67,12.38-2.67c3.98,0,6.92.91,8.81,2.72s2.84,4.62,2.84,8.4v16.24c0,3.72,1.14,5.58,3.43,5.58.29,0,.7-.04,1.25-.13l.46,3.6c-1.47.7-3.1,1.06-4.89,1.06-3.03-.01-4.96-1.8-5.8-5.39Zm-.96-3.53v-9.28l-2.08-.07c-3.61,0-6.52.67-8.73,2.01s-3.32,3.12-3.32,5.35c0,1.56.55,2.88,1.65,3.96s2.44,1.62,4.03,1.62c2.71.01,5.53-1.19,8.45-3.59Z" fill="#fff"/><path d="M106.29,91.3v-6.5h6.5v6.5h-6.5Zm0,42.35v-35.85h6.5v35.85h-6.5Z" fill="#fff"/><path d="M125.02,133.65v-35.85h6.5v6.73c3.43-5.02,7.64-7.53,12.61-7.53c3.12,0,5.61.98,7.44,2.95c1.84,1.97,2.76,4.62,2.76,7.94v25.75h-6.5v-23.63c0-2.66-.39-4.56-1.17-5.69s-2.07-1.7-3.88-1.7c-3.98,0-7.74,2.61-11.26,7.82v23.2h-6.5Z" fill="#fff"/><path d="M192.7,132.49c-4.36,1.32-8.09,1.98-11.19,1.98-5.3,0-9.62-1.75-12.94-5.26s-4.98-8.05-4.98-13.64c0-5.43,1.47-9.88,4.41-13.36c2.94-3.47,6.69-5.21,11.27-5.21c4.33,0,7.69,1.55,10.05,4.64c2.37,3.09,3.55,7.48,3.55,13.15l-.03,1.98h-22.61c.95,8.49,5.12,12.74,12.51,12.74c2.71,0,6.03-.74,9.97-2.21v5.19ZM170.52,111.9h15.81c0-6.67-2.49-10-7.46-10-4.99-.01-7.77,3.33-8.35,10Z" fill="#fff"/><path d="M248.52,133.65v-6.73c-2.64,5.04-6.63,7.56-11.96,7.56-4.32,0-7.72-1.57-10.2-4.72s-3.72-7.45-3.72-12.91c0-5.96,1.4-10.76,4.21-14.39s6.51-5.45,11.09-5.45c4.25,0,7.78,1.63,10.58,4.88v-20.36h6.5v52.12h-6.5Zm0-27.3c-3.37-2.97-6.57-4.46-9.59-4.46-2.98,0-5.28,1.24-6.91,3.73s-2.45,6.01-2.45,10.56c0,8.38,2.78,12.58,8.33,12.58c3.61,0,7.15-1.97,10.61-5.91v-16.5Z" fill="#fff"/><path d="M281.07,134.47c-5.26,0-9.42-1.68-12.49-5.05s-4.6-7.93-4.6-13.7c0-5.76,1.53-10.33,4.6-13.68s7.23-5.03,12.49-5.03s9.42,1.68,12.49,5.03c3.07,3.36,4.61,7.92,4.61,13.68c0,5.77-1.54,10.33-4.61,13.7s-7.23,5.05-12.49,5.05Zm-.02-4.88c3.23,0,5.73-1.21,7.51-3.63s2.67-5.83,2.67-10.23-.89-7.81-2.67-10.22-4.28-3.61-7.51-3.61-5.73,1.21-7.5,3.61c-1.77,2.41-2.65,5.82-2.65,10.22s.88,7.81,2.65,10.23s4.27,3.63,7.5,3.63Z" fill="#fff"/><path d="M335.15,132.49c-4.36,1.32-8.09,1.98-11.19,1.98-5.3,0-9.62-1.75-12.94-5.26s-4.98-8.05-4.98-13.64c0-5.43,1.47-9.88,4.41-13.36c2.94-3.47,6.7-5.21,11.27-5.21c4.33,0,7.68,1.55,10.05,4.64s3.55,7.48,3.55,13.15l-.03,1.98h-22.61c.95,8.49,5.12,12.74,12.51,12.74c2.71,0,6.03-.74,9.97-2.21v5.19ZM312.97,111.9h15.81c0-6.67-2.49-10-7.46-10-5-.01-7.78,3.33-8.35,10Z" fill="#fff"/><path d="M345.22,132.39v-5.97c4.25,2.11,7.94,3.17,11.09,3.17c1.87,0,3.42-.51,4.65-1.52s1.85-2.28,1.85-3.8c0-2.22-1.73-4.06-5.18-5.51l-3.8-1.62c-5.61-2.33-8.42-5.69-8.42-10.07c0-3.12,1.11-5.58,3.32-7.38c2.21-1.79,5.24-2.69,9.09-2.69c2,0,4.48.28,7.43.83l1.35.26v5.41c-3.63-1.08-6.52-1.62-8.68-1.62-1.89,0-3.4.41-4.54,1.24-1.13.83-1.7,1.93-1.7,3.32c0,1.96,1.58,3.61,4.75,4.95l3.14,1.32c3.54,1.5,6.05,3.08,7.53,4.74c1.47,1.66,2.21,3.74,2.21,6.22c0,3.15-1.24,5.73-3.73,7.76s-5.67,3.04-9.54,3.04c-2.97,0-6.58-.69-10.82-2.08Z" fill="#fff"/><path d="M427.27,132.56c-4.2,1.28-7.83,1.92-10.89,1.92-4.84,0-8.86-1.79-12.05-5.38s-4.79-8.11-4.79-13.57c0-5.83,1.58-10.38,4.74-13.63c3.16-3.26,7.56-4.88,13.22-4.88c2.79,0,5.92.39,9.37,1.16v5.45c-3.67-1.08-6.66-1.62-8.96-1.62-3.34,0-6.01,1.25-8.01,3.75s-3,5.83-3,9.98c0,4.03,1.03,7.28,3.1,9.77s4.77,3.73,8.11,3.73c2.96,0,6.02-.76,9.16-2.28v5.6Z" fill="#fff"/><path d="M451.27,134.47c-5.26,0-9.42-1.68-12.49-5.05s-4.6-7.93-4.6-13.7c0-5.76,1.53-10.33,4.6-13.68s7.23-5.03,12.49-5.03s9.42,1.68,12.49,5.03c3.07,3.36,4.6,7.92,4.6,13.68c0,5.77-1.53,10.33-4.6,13.7s-7.23,5.05-12.49,5.05Zm-.02-4.88c3.23,0,5.73-1.21,7.51-3.63s2.67-5.83,2.67-10.23-.89-7.81-2.67-10.22-4.28-3.61-7.51-3.61-5.73,1.21-7.5,3.61c-1.77,2.41-2.65,5.82-2.65,10.22s.88,7.81,2.65,10.23s4.27,3.63,7.5,3.63Z" fill="#fff"/><path d="M501.57,133.65v-6.73c-2.64,5.04-6.63,7.56-11.96,7.56-4.32,0-7.72-1.57-10.2-4.72s-3.72-7.45-3.72-12.91c0-5.96,1.4-10.76,4.21-14.39s6.5-5.45,11.09-5.45c4.25,0,7.78,1.63,10.58,4.88v-20.36h6.5v52.12h-6.5Zm0-27.3c-3.37-2.97-6.57-4.46-9.59-4.46-2.98,0-5.28,1.24-6.91,3.73s-2.45,6.01-2.45,10.56c0,8.38,2.78,12.58,8.33,12.58c3.62,0,7.15-1.97,10.61-5.91v-16.5Z" fill="#fff"/><path d="M546,132.49c-4.36,1.32-8.09,1.98-11.19,1.98-5.3,0-9.62-1.75-12.94-5.26s-4.98-8.05-4.98-13.64c0-5.43,1.47-9.88,4.41-13.36C524.24,98.74,528,97,532.57,97c4.33,0,7.68,1.55,10.05,4.64s3.55,7.48,3.55,13.15l-.03,1.98h-22.61c.95,8.49,5.12,12.74,12.51,12.74c2.71,0,6.03-.74,9.97-2.21v5.19ZM523.82,111.9h15.81c0-6.67-2.49-10-7.46-10-4.99-.01-7.78,3.33-8.35,10Z" fill="#fff"/></g><g id="e7DNjWzpnQJ17" transform="matrix(1 0 0 1.16936 2.583733-65.093682)"><path d="M560.31,134.47v-52.94h2.83v52.94h-2.83Z" fill="#fff"/></g></svg>